<?xml version="1.0" encoding="utf-8"?>
<!DOCTYPE svg>
<svg xmlns="http://www.w3.org/2000/svg" version="1.1"
  x="0px" y="0px" width="15px" height="15px"
  viewBox="-7.5 -7.5 15 15"
  style="enable-background:new 7.5 -7.5 15 15;"
  xml:space="preserve">
  <path
    style="fill:rgba(255,255,255,0.5);"
    transform="scale(7)"
    d="M0,0m-1.0,0a1.0,1.0 0,1,1 2.0,0a1.0,1.0 0,1,1 -2.0,0z" />
  <path transform="scale(6)" d="
  M+0001+.000m-.0625,0a.0625,.0625 0,1,1 .125,0a.0625.0625 0,1,1 -.125,0z
  M+.000+0001m-.0625,0a.0625,.0625 0,1,1 .125,0a.0625.0625 0,1,1 -.125,0z
  M-0001+.000m-.0625,0a.0625,.0625 0,1,1 .125,0a.0625.0625 0,1,1 -.125,0z
  M+.000-0001m-.0625,0a.0625,.0625 0,1,1 .125,0a.0625.0625 0,1,1 -.125,0z
  M+.866+.500m-.0625,0a.0625,.0625 0,1,1 .125,0a.0625.0625 0,1,1 -.125,0z
  M+.866-.500m-.0625,0a.0625,.0625 0,1,1 .125,0a.0625.0625 0,1,1 -.125,0z
  M-.866+.500m-.0625,0a.0625,.0625 0,1,1 .125,0a.0625.0625 0,1,1 -.125,0z
  M-.866-.500m-.0625,0a.0625,.0625 0,1,1 .125,0a.0625.0625 0,1,1 -.125,0z
  M+.500+.866m-.0625,0a.0625,.0625 0,1,1 .125,0a.0625.0625 0,1,1 -.125,0z
  M+.500-.866m-.0625,0a.0625,.0625 0,1,1 .125,0a.0625.0625 0,1,1 -.125,0z
  M-.500+.866m-.0625,0a.0625,.0625 0,1,1 .125,0a.0625.0625 0,1,1 -.125,0z
  M-.500-.866m-.0625,0a.0625,.0625 0,1,1 .125,0a.0625.0625 0,1,1 -.125,0z" />
</svg>
